<svg width="106" height="45" viewBox="0 0 106 45" fill="none" xmlns="http://www.w3.org/2000/svg">
<path d="M3.02999 19.5003C2.20173 19.4837 1.51687 20.1417 1.5003 20.97C1.48373 21.7983 2.14174 22.4831 2.97001 22.4997L3.02999 19.5003ZM104.039 24.0817C104.637 23.5077 104.656 22.5581 104.082 21.9608L94.7285 12.2258C94.1545 11.6285 93.205 11.6095 92.6076 12.1834C92.0102 12.7574 91.9912 13.7069 92.5652 14.3043L100.879 22.9576L92.2258 31.2715C91.6285 31.8455 91.6095 32.795 92.1834 33.3924C92.7574 33.9898 93.7069 34.0088 94.3043 33.4348L104.039 24.0817ZM2.97001 22.4997L6.09501 22.5622L6.15499 19.5628L3.02999 19.5003L2.97001 22.4997ZM12.345 22.6872L18.595 22.8122L18.655 19.8128L12.405 19.6878L12.345 22.6872ZM24.845 22.9372L31.095 23.0622L31.155 20.0628L24.905 19.9378L24.845 22.9372ZM37.345 23.1872L43.595 23.3122L43.655 20.3128L37.405 20.1878L37.345 23.1872ZM49.845 23.4372L56.095 23.5622L56.155 20.5628L49.905 20.4378L49.845 23.4372ZM62.345 23.6872L68.595 23.8122L68.655 20.8128L62.405 20.6878L62.345 23.6872ZM74.845 23.9372L81.095 24.0622L81.155 21.0628L74.905 20.9378L74.845 23.9372ZM87.345 24.1872L93.595 24.3122L93.655 21.3128L87.405 21.1878L87.345 24.1872ZM99.845 24.4372L102.97 24.4997L103.03 21.5003L99.905 21.4378L99.845 24.4372ZM3.05999 18.0006C1.40346 17.9675 0.0337302 19.2835 0.000599742 20.94C-0.0325307 22.5965 1.28349 23.9663 2.94001 23.9994L3.05999 18.0006ZM105.078 25.1633C106.273 24.0154 106.311 22.1163 105.163 20.9215L86.457 1.45169C85.3091 0.256928 83.41 0.218946 82.2152 1.36686C81.0204 2.51477 80.9825 4.41388 82.1304 5.60865L98.7582 22.9152L81.4517 39.543C80.2569 40.6909 80.2189 42.59 81.3669 43.7848C82.5148 44.9795 84.4139 45.0175 85.6086 43.8696L105.078 25.1633ZM2.94001 23.9994L6.06501 24.0619L6.18499 18.0631L3.05999 18.0006L2.94001 23.9994ZM12.315 24.1869L18.565 24.3119L18.685 18.3131L12.435 18.1881L12.315 24.1869ZM24.815 24.4369L31.065 24.5619L31.185 18.5631L24.935 18.4381L24.815 24.4369ZM37.315 24.6869L43.565 24.8119L43.685 18.8131L37.435 18.6881L37.315 24.6869ZM49.815 24.9369L56.065 25.0619L56.185 19.0631L49.935 18.9381L49.815 24.9369ZM62.315 25.1869L68.565 25.3119L68.685 19.3131L62.435 19.1881L62.315 25.1869ZM74.815 25.4369L81.065 25.5619L81.185 19.5631L74.935 19.4381L74.815 25.4369ZM87.315 25.6869L93.565 25.8119L93.685 19.8131L87.435 19.6881L87.315 25.6869ZM99.815 25.9369L102.94 25.9994L103.06 20.0006L99.935 19.9381L99.815 25.9369Z" fill="#FF7A00"/>
</svg>
